<?xml version="1.0" encoding="UTF-8" standalone="no"?>
<!DOCTYPE svg PUBLIC "-//W3C//DTD SVG 1.1//EN" "http://www.w3.org/Graphics/SVG/1.1/DTD/svg11.dtd">
<svg width="100%" height="100%" viewBox="0 0 750 750" version="1.1" xmlns="http://www.w3.org/2000/svg" xmlns:xlink="http://www.w3.org/1999/xlink" xml:space="preserve" xmlns:serif="http://www.serif.com/" style="fill-rule:evenodd;clip-rule:evenodd;stroke-linejoin:round;stroke-miterlimit:2;">
    <g transform="matrix(1,0,0,1,71.791,-155.194)">
        <g opacity="0.58">
            <g transform="matrix(3.76086,0,0,3.76086,-1093.4,-345.428)">
                <path d="M364.044,207.651C368.473,207.123 380.131,206.85 384.024,207.651C384.791,207.809 385.395,207.963 385.896,208.15C385.456,208.046 385.01,208.001 384.533,207.962C383.885,207.909 383.177,207.882 382.472,207.962C382.413,207.969 382.353,207.976 382.292,207.983C382.559,208.027 382.816,208.078 383.082,208.161C383.371,208.207 383.658,208.276 383.932,208.376C384.877,208.723 386.026,209.435 386.748,210.204C387.443,210.945 387.949,211.909 388.23,212.872C388.515,213.85 388.515,214.948 388.428,216.034C388.335,217.184 388.104,218.57 387.637,219.592C387.523,219.841 387.391,220.084 387.246,220.319C387.462,220.207 387.68,220.086 387.887,219.962C387.523,223.215 389.037,230.428 388.238,234.031C387.6,236.913 386.329,239.567 384.648,240.743C383.156,241.787 381.453,241.275 379.029,241.367C375.571,241.499 368.544,240.809 365.293,241.055C363.162,241.217 362.073,242.305 360.61,241.992C359.101,241.668 357.467,240.677 356.395,239.026C354.982,236.848 354.306,232.321 353.898,229.036C353.505,225.873 353.621,222.328 353.898,219.67C354.126,217.483 354.397,215.79 355.147,214.051C355.901,212.302 356.941,210.279 358.425,209.212C359.907,208.147 361.338,207.974 364.044,207.651Z" style="fill:rgb(255,203,55);fill-rule:nonzero;"/>
            </g>
            <g transform="matrix(3.76086,0,0,3.76086,-1093.4,-345.428)">
                <path d="M315.072,140.631C316.96,140.169 318.664,140.475 320.042,141.045C321.316,141.572 322.484,142.506 323.148,143.736C323.89,145.114 324.289,147.584 323.976,149.12C323.694,150.503 322.926,151.542 321.698,152.64C320.088,154.08 315.511,155.834 314.451,156.574C314.018,156.877 314.113,156.858 313.83,157.196C313.318,157.805 311.747,159.128 311.552,160.301C311.348,161.53 312.909,162.805 312.794,164.443C312.646,166.565 311.543,170.625 309.688,172.104C307.861,173.561 304.052,173.888 301.82,173.346C299.762,172.847 297.652,171.193 296.644,169.412C295.599,167.569 295.493,164.838 295.815,162.372C296.175,159.622 297.458,156.396 299.128,153.675C300.904,150.782 303.666,147.793 306.375,145.6C308.999,143.476 312.577,141.24 315.072,140.631ZM422.776,139.69C424.23,139.602 426.678,139.677 428.988,140.933C432.294,142.729 437.508,147.365 440.376,151.493C443.222,155.588 446.322,162.098 446.174,165.573C446.067,168.061 444.497,170.063 442.654,171.164C440.593,172.394 436.397,172.357 433.957,171.992C431.907,171.685 429.921,171.062 428.781,169.714C427.58,168.296 426.963,165.309 427.124,163.502C427.266,161.919 429.651,160.97 429.195,159.361C428.489,156.871 420.578,152.771 418.842,150.25C417.75,148.666 417.414,147.588 417.599,146.109C417.815,144.38 419.66,141.511 420.705,140.518C421.391,139.867 421.818,139.748 422.776,139.69ZM300.969,219.782C302.496,219.866 306.329,220.771 307.923,222.601C309.694,224.635 310.233,229.198 310.555,231.999C310.826,234.365 309.898,235.546 310.179,238.389C310.608,242.737 313.606,251.151 314.314,256.433C314.902,260.823 314.8,264.746 314.69,268.085C314.599,270.836 313.244,273.343 313.938,275.228C314.577,276.964 315.889,278.309 318.261,279.175C321.983,280.533 329.321,279.926 336.304,279.926C344.87,279.927 357.193,278.753 366.376,278.799C374.563,278.839 380.684,279.83 388.93,279.926C398.27,280.035 414.249,277.87 419.754,279.175C420.357,279.318 420.877,279.481 421.33,279.663C421.593,278.479 422.157,277.251 422.973,276.386C423.705,275.61 424.967,274.925 426.227,274.412C426.235,273.993 426.273,273.585 426.358,273.197C426.967,270.419 429.076,267.999 429.741,264.552C430.547,260.371 429.537,254.39 430.117,249.516C430.684,244.748 432.664,239.736 433.124,235.607C433.513,232.11 432.45,228.801 433.124,226.21C433.699,223.999 435.301,221.706 436.319,220.759C436.965,220.159 437.359,220.118 438.199,220.007C439.395,219.849 441.763,219.845 443.085,220.383C444.271,220.866 445.268,221.374 445.905,222.827C446.91,225.12 446.971,230.404 446.656,234.48C446.316,238.891 444.283,243.325 443.649,248.388C442.946,254.003 443.832,261.933 442.897,266.807C442.176,270.567 440.032,273.09 439.514,275.829C439.075,278.152 440.203,279.902 439.514,282.219C438.652,285.121 435.578,289.963 433.688,291.805C432.411,293.048 431.57,293.326 429.929,293.684C427.738,294.162 423.43,294.215 421.283,293.684C420.886,293.586 420.518,293.482 420.175,293.362C416.633,294.542 410.08,293.91 405.47,293.835C400.778,293.758 396.695,292.789 391.937,292.707C386.834,292.619 382.158,293.494 375.774,293.459C367.713,293.414 355.118,291.93 346.829,291.955C340.024,291.976 334.974,293.089 329.162,293.083C323.449,293.076 315.726,293.062 312.246,291.955C310.137,291.284 309.269,290.104 308.299,289.136C307.502,288.34 307.383,287.564 306.608,286.693C305.629,285.593 303.7,284.487 302.661,283.122C301.644,281.785 300.773,280.149 300.405,278.611C300.054,277.139 300.346,276.211 300.405,274.1C300.501,270.681 301.624,263.892 301.157,259.064C300.704,254.38 298.629,250.672 297.774,245.531C296.772,239.505 294.97,228.957 295.895,224.857C296.433,222.469 298.108,221.336 299.09,220.534C299.754,219.991 300.065,219.733 300.969,219.782Z" style="fill:rgb(141,141,141);fill-rule:nonzero;"/>
            </g>
            <g transform="matrix(3.76086,0,0,3.76086,-1093.4,-345.428)">
                <path d="M367.671,179.084C368.842,179.078 369.65,178.955 370.611,179.239C371.638,179.542 372.865,180.166 373.629,180.941C374.374,181.698 374.893,182.785 375.176,183.804C375.46,184.823 375.425,186.375 375.331,187.054C375.277,187.448 374.735,187.631 375.022,187.827C375.891,188.423 385.463,187.184 388.407,187.905C390.295,188.367 391.608,189.648 392.198,190.149C392.476,190.384 392.314,190.575 392.585,190.69C393.066,190.895 394.468,190.536 395.37,190.69C396.273,190.845 396.411,191.403 398.001,191.619C401.641,192.112 416.733,191.251 420.129,191.619C421.491,191.766 421.582,191.861 422.296,192.238C423.105,192.664 423.941,193.187 424.694,194.172C425.706,195.494 425.972,198.911 427.48,199.975C428.959,201.019 431.774,199.895 433.592,200.594C435.377,201.28 437.288,202.895 438.312,204.075C439.107,204.992 439.448,205.895 439.705,206.861C439.955,207.805 440.008,208.606 439.859,209.801C439.658,211.418 438.857,214.361 438.157,215.836C437.637,216.932 437.113,217.602 436.378,218.235C435.643,218.866 434.692,219.368 433.747,219.627C432.786,219.891 431.712,219.96 430.652,219.782C429.499,219.589 428.614,218.655 427.093,218.389C425.06,218.034 421.467,218.09 419.201,218.389C417.292,218.641 415.731,219.569 414.249,219.782C412.993,219.963 411.955,219.937 410.845,219.782C409.738,219.627 408.949,219.097 407.595,218.854C405.801,218.531 402.584,218.127 400.787,218.235C399.437,218.315 398.684,219.073 397.537,219.008C396.273,218.936 394.241,217.689 393.514,217.616C393.173,217.581 393.189,217.774 392.895,217.77C392.41,217.765 391.448,217.618 390.728,217.306C390.608,217.254 390.488,217.203 390.368,217.15C390.426,217.156 390.483,217.16 390.541,217.164C391.05,217.196 391.637,217.149 392.113,217.074C392.541,217.006 392.837,216.953 393.281,216.76C393.416,216.701 393.569,216.628 393.73,216.545C393.385,216.582 393.034,216.596 392.706,216.572C391.913,216.514 391.037,216.269 390.326,215.943C389.645,215.631 388.963,215.104 388.507,214.686C388.14,214.348 387.948,214.072 387.699,213.675C387.418,213.228 387.109,212.589 386.936,212.104C386.786,211.686 386.72,211.364 386.666,210.936C386.606,210.46 386.604,209.77 386.621,209.364C386.634,209.071 386.831,208.913 386.711,208.668C386.53,208.299 385.579,207.928 385.139,207.478C384.718,207.048 384.36,206.491 384.107,206.041C383.892,205.661 383.776,205.349 383.658,204.964C383.583,204.719 383.516,204.456 383.466,204.188C383.307,204.576 383.191,204.982 383.109,205.376C383.051,205.655 383.02,205.899 382.999,206.177C382.969,206.246 382.941,206.314 382.913,206.384C381.013,205.755 376.106,206.165 374.48,205.855C373.573,205.682 373.6,205.206 372.778,205.236C371.39,205.286 368.924,206.989 366.433,207.402C363.442,207.899 357.164,206.433 355.833,207.557C354.981,208.277 356.085,209.861 355.988,211.039C355.889,212.258 355.696,213.684 355.214,214.753C354.765,215.752 354.043,216.668 353.28,217.306C352.56,217.908 351.68,218.312 350.804,218.544C349.926,218.777 348.904,218.833 348.019,218.699C347.152,218.567 346.459,217.687 345.543,217.77C344.438,217.87 344.061,219.327 341.829,219.782C337.104,220.746 319.044,220.77 314.285,219.782C312.015,219.311 311.344,218.478 310.494,217.693C309.826,217.077 309.539,216.458 309.256,215.681C308.945,214.829 308.732,213.684 308.791,212.741C308.849,211.829 309.126,210.913 309.565,210.111C310.018,209.283 310.769,208.4 311.499,207.867C312.174,207.374 313.217,207.507 313.743,206.938C314.305,206.331 314.222,204.995 314.672,204.23C315.091,203.517 315.542,202.948 316.296,202.451C317.217,201.844 318.555,201.35 320.01,201.058C321.741,200.711 325.323,201.642 326.123,200.749C326.796,199.995 325.29,198.106 325.504,196.803C325.73,195.423 326.764,193.632 327.593,192.702C328.256,191.957 329.497,191.96 329.837,191.309C330.164,190.683 329.612,189.728 329.682,188.911C329.755,188.054 329.928,187.139 330.301,186.28C330.702,185.356 331.161,184.386 332.08,183.572C333.225,182.558 335.465,181.379 337.032,180.941C338.384,180.563 339.587,180.667 340.901,180.787C342.268,180.911 343.917,181.186 345.079,181.715C346.113,182.186 347.008,182.984 347.632,183.649C348.15,184.202 348.46,184.659 348.715,185.352C349.014,186.161 349.175,187.43 349.179,188.292C349.184,189.021 348.532,189.873 348.87,190.226C349.279,190.654 350.915,190.418 352.042,190.226C353.319,190.008 355.465,189.701 356.143,188.833C356.753,188.052 355.962,186.667 356.298,185.506C356.688,184.158 357.574,182.279 358.619,181.251C359.595,180.291 360.855,179.764 362.255,179.394C363.824,178.979 366.177,179.093 367.671,179.084Z" style="fill:rgb(255,246,169);fill-rule:nonzero;"/>
            </g>
            <g transform="matrix(3.76086,0,0,3.76086,-1093.4,-345.428)">
                <path d="M316.4,218.609C320.98,218.198 339.394,220.385 344.385,220.358C346.715,220.346 347.251,219.617 348.539,219.921C349.84,220.228 351.317,221.316 352.146,222.217C352.86,222.991 353.238,223.902 353.458,224.84C353.683,225.795 353.641,226.916 353.458,227.901C353.276,228.884 352.477,229.919 352.365,230.743C352.275,231.406 352.649,231.826 352.584,232.492C352.503,233.314 351.589,234.255 351.709,235.335C351.86,236.693 352.3,238.898 354.114,240.035C356.94,241.807 364.967,241.831 369.965,242.222C374.581,242.583 379.755,242.849 383.083,242.44C385.486,242.145 387.474,242.274 388.658,240.8C390.112,238.991 390.338,233.479 389.97,231.181C389.711,229.566 388.308,228.807 388.002,227.682C387.736,226.703 387.778,225.798 388.002,224.84C388.246,223.796 388.608,222.522 389.533,221.67C390.645,220.645 392.707,219.871 394.671,219.484C396.898,219.044 398.946,219.306 402.323,219.484C407.346,219.747 418.663,221.8 422.874,221.451C425.232,221.256 425.957,219.851 427.466,219.921C428.981,219.991 430.881,220.913 431.948,221.889C432.928,222.785 433.441,224.859 433.806,225.387C433.961,225.611 433.987,225.464 434.134,225.715C434.167,225.771 434.209,225.842 434.258,225.925C434.068,226.228 433.896,226.555 433.749,226.907C433.167,228.296 433.023,230.338 432.874,232.154C432.766,233.473 432.667,235.104 432.715,236.469C432.53,236.531 432.347,236.674 432.166,237.084C430.682,240.455 429.812,263.625 428.231,269.66C427.426,272.731 426.6,273.702 425.607,275.126C424.778,276.315 423.922,277.183 422.874,277.859C421.841,278.525 421.462,278.859 419.376,279.171C414.739,279.864 399.993,279.72 391.828,279.389C384.808,279.105 379.98,277.863 373.026,277.64C365.04,277.384 355.04,278.341 346.353,278.296C337.926,278.253 325.873,278.063 321.647,277.422C319.723,277.13 319.311,276.876 318.368,276.328C317.465,275.804 316.676,275.045 316.072,274.251C315.481,273.474 315.053,272.655 314.76,271.628C314.423,270.445 314.365,268.129 314.323,267.474C314.306,267.208 314.295,267.199 314.323,267.036C314.356,266.842 314.552,266.572 314.542,266.381C314.532,266.214 314.359,266.092 314.323,265.943C314.289,265.801 314.344,265.752 314.323,265.506C314.277,264.967 313.852,263.064 313.886,262.445C313.904,262.105 314.115,261.981 314.104,261.789C314.095,261.623 313.921,261.501 313.886,261.352C313.852,261.209 313.892,261.208 313.886,260.915C313.867,260.059 313.643,257.24 313.667,254.574C313.7,250.892 314.742,244.024 314.323,240.363C314.014,237.665 312.637,235.758 312.355,234.023C312.143,232.714 312.249,231.304 312.355,230.743C312.405,230.481 312.622,230.524 312.574,230.306C312.478,229.868 311.198,229.071 310.825,228.12C310.378,226.981 310.034,225.124 310.387,223.747C310.756,222.311 312.026,220.554 313.12,219.702C314.074,218.961 314.417,218.787 316.4,218.609Z" style="fill:rgb(146,87,17);fill-rule:nonzero;"/>
            </g>
            <g transform="matrix(3.76086,0,0,3.76086,-1093.4,-345.428)">
                <path d="M302.938,169.283C303.958,169.129 305.28,169.187 306.358,169.473C307.433,169.759 308.185,170.744 309.399,170.994C310.831,171.288 312.509,170.75 314.53,170.804C317.078,170.871 320.945,171.643 323.653,171.564C325.991,171.495 327.57,170.784 329.924,170.614C332.67,170.415 335.208,170.47 339.237,170.614C345.044,170.821 356.429,172.075 362.422,172.134C366.747,172.177 369.344,171.525 372.685,171.564C375.927,171.602 379.14,172.337 382.187,172.324C385.084,172.312 386.456,171.765 390.549,171.564C397.616,171.217 415.675,170.712 423.428,170.994C428.445,171.176 431.748,172.255 434.45,172.134C436.299,172.052 437.246,171.044 438.632,171.184C440.066,171.328 441.933,172.187 442.908,173.084C443.757,173.866 444.144,174.995 444.428,176.03C444.497,176.282 444.559,176.536 444.61,176.794C443.728,177.927 442.914,179.76 442.608,180.161C442.485,180.323 442.526,180.229 442.398,180.371C442.051,180.756 440.589,182.249 440.085,183.105C439.717,183.729 439.529,184.21 439.417,184.856C438.938,185.013 438.472,185.19 438.061,185.437C436.717,186.244 434.89,187.155 434.355,188.383C433.846,189.553 434.876,191.242 434.736,192.564C434.601,193.833 434.129,195.271 433.595,196.175C433.159,196.914 432.646,197.344 431.98,197.79C431.247,198.282 430.222,198.744 429.319,198.931C428.447,199.111 427.634,199.257 426.659,198.931C426.375,198.836 426.054,198.703 425.717,198.538C425.794,198.32 425.86,198.109 425.915,197.909C426.173,196.974 426.096,196.121 425.915,195.248C425.728,194.346 425.428,193.383 424.775,192.588C424.026,191.675 422.727,190.646 421.449,190.212C420.499,189.889 419.382,189.756 418.256,189.829C417.955,189.761 417.65,189.695 417.346,189.618C415.981,189.271 414.318,188.961 412.785,189.048C411.214,189.137 409.961,189.975 408.034,190.189C405.56,190.463 402.328,190.459 398.912,190.189C394.875,189.869 388.071,188.968 385.228,188.098C383.559,187.587 383.218,186.55 381.997,186.388C380.652,186.209 378.879,187.545 377.436,187.338C376.163,187.155 375.267,185.925 373.906,185.343C373.975,185.173 374.034,185.011 374.08,184.861C374.377,183.892 374.299,183.103 374.08,182.2C373.839,181.205 373.332,179.987 372.56,179.16C371.746,178.288 370.596,177.549 369.234,177.164C367.624,176.709 365.034,176.654 363.342,176.974C361.869,177.253 360.51,177.804 359.541,178.685C358.585,179.554 357.851,181.095 357.546,182.2C357.288,183.135 357.346,183.973 357.546,184.861C357.57,184.965 357.595,185.071 357.622,185.178C357.497,185.104 357.485,185.005 357.291,185.057C356.742,185.206 355.657,186.734 354.631,187.148C353.575,187.574 352.234,187.799 351.02,187.528C350.309,187.37 349.411,186.906 348.616,186.404C348.428,185.162 347.897,183.834 347.337,182.97C346.666,181.937 345.754,181.227 344.581,180.785C343.216,180.27 341.058,180.43 339.45,180.405C337.97,180.382 336.511,180.278 335.269,180.595C334.127,180.887 333.072,181.298 332.228,182.115C331.801,182.53 331.368,183.103 330.996,183.728C330.798,183.719 330.735,183.724 330.589,183.917C330.443,184.11 330.411,184.461 330.4,184.907C330.241,185.287 330.117,185.663 330.043,186.011C329.918,186.597 329.925,187.234 330.005,187.849C329.021,190.329 325.706,195.691 324.033,197.41C323.968,197.477 323.904,197.541 323.841,197.601C323.365,198.903 322.301,200.402 321.435,201.167C320.634,201.875 319.677,202.12 318.775,202.307C317.902,202.488 317.061,202.579 316.114,202.307C314.966,201.978 313.403,201.11 312.408,200.121C311.401,199.121 310.558,197.538 310.127,196.32C309.976,195.894 309.849,195.494 309.765,195.097C308.324,192.894 306.189,188.616 304.933,187.148C304.112,186.188 303.641,186.359 302.843,185.532C301.669,184.318 299.507,181.921 298.661,180.021C297.895,178.299 297.401,176.339 297.711,174.7C298.018,173.08 299.455,171.113 300.467,170.234C301.237,169.565 302.017,169.423 302.938,169.283Z" style="fill:rgb(110,64,12);fill-rule:nonzero;"/>
            </g>
            <g transform="matrix(3.76086,0,0,3.76086,-1093.4,-345.428)">
                <path d="M361.095,146.119C375.576,145.985 406.786,144.323 416.865,147.038C422.262,148.492 422.012,152.065 424.227,154.346C426.08,156.255 427.103,158.607 427.804,160.606C428.412,162.341 428.881,163.943 428.519,165.613C428.12,167.46 426.899,170.034 425.121,171.158C424.545,171.522 423.865,171.768 423.113,171.932C419.759,171.759 416.029,171.752 413.902,171.95C411.252,171.527 408.42,170.747 404.375,170.442C396.056,169.814 382.982,169.625 370.037,169.727C354.727,169.847 326.053,173.152 317.815,171.515C314.236,170.804 313.287,169.624 312.271,168.117C311.352,166.754 311.354,165.043 311.555,163.11C311.809,160.669 313.07,156.837 314.417,154.525C315.603,152.49 317.304,151.004 318.888,149.696C320.358,148.483 321.897,147.303 323.538,146.835C325.123,146.382 326.848,146.665 328.546,146.835C330.304,147.01 331.095,147.782 333.911,147.908C339.262,148.148 350.056,146.222 361.095,146.119Z" style="fill:rgb(146,87,17);fill-rule:nonzero;"/>
            </g>
            <g transform="matrix(9.23507,0,0,9.23507,7.66359,176.156)">
                <path d="M54.57,64L9.43,64C5.85,64.011 2.812,61.264 2.465,57.7L0.005,33.1C0.002,33.067 -0,33.033 -0,33C-0,32.451 0.451,32 1,32L25,32L25,34L2.105,34L4.455,57.5C4.704,60.045 6.873,62.007 9.43,62L54.57,62C57.127,62.007 59.296,60.045 59.545,57.5L61.9,34L39,34L39,32L63,32C63.002,32 63.003,32 63.005,32C63.554,32 64.005,32.451 64.005,33C64.005,33.033 64.003,33.067 64,33.1L61.54,57.7C61.192,61.265 58.152,64.013 54.57,64Z" style="fill-rule:nonzero;"/>
                <path d="M37,43L27,43C25.354,43 24,41.646 24,40L24,30C24,28.354 25.354,27 27,27L37,27C38.646,27 40,28.354 40,30L40,40C40,41.646 38.646,43 37,43ZM27,29C26.451,29 26,29.451 26,30L26,40C26,40.549 26.451,41 27,41L37,41C37.549,41 38,40.549 38,40L38,30C38,29.451 37.549,29 37,29L27,29Z" style="fill-rule:nonzero;"/>
                <path d="M52.239,58L50,58L50,56L52.239,56C53.272,55.994 54.141,55.195 54.233,54.166L56,32.917L58,33.083L56.23,54.332C56.047,56.391 54.306,57.991 52.239,58Z" style="fill-rule:nonzero;"/>
                <rect x="46" y="56" width="2" height="2"/>
                <path d="M44,58L11.761,58C9.695,57.989 7.957,56.389 7.774,54.332L6,33.083L8,32.917L9.767,54.166C9.859,55.195 10.728,55.994 11.761,56L44,56L44,58Z" style="fill-rule:nonzero;"/>
                <rect x="7" y="37" width="11" height="2"/>
                <rect x="20" y="37" width="2" height="2"/>
                <rect x="42" y="37" width="15" height="2"/>
                <path d="M36,40L28,40C27.451,40 27,39.549 27,39L27,31C27,30.451 27.451,30 28,30L36,30C36.549,30 37,30.451 37,31L37,39C37,39.549 36.549,40 36,40ZM29,38L35,38L35,32L29,32L29,38Z" style="fill-rule:nonzero;"/>
                <rect x="31" y="33" width="2" height="4"/>
                <rect x="7" y="58" width="2" height="2"/>
                <rect x="55" y="58" width="2" height="2"/>
                <rect x="59" y="35" width="2" height="2"/>
                <rect x="3" y="36" width="2" height="2"/>
                <path d="M19.933,57.361L18.067,56.639C19.015,54.196 21.425,52.186 24.679,51.123C26.694,50.538 28.765,50.163 30.857,50.005C31.457,49.938 32.057,49.872 32.657,49.795C35.131,49.625 37.523,48.834 39.61,47.495C40.047,47.173 41.056,46.319 41.023,45.35L41.018,45.25C41.003,45.158 40.995,45.064 40.995,44.97C40.995,44.055 41.725,43.292 42.639,43.25C47.029,42.422 51.487,42.003 55.954,42L56,42L56,44L55.954,44C51.615,44.001 47.285,44.405 43.02,45.208L43.02,45.279C42.961,46.841 42.128,48.275 40.8,49.1C38.438,50.641 35.725,51.563 32.913,51.779C32.303,51.857 31.689,51.925 31.075,51.992C29.12,52.137 27.185,52.483 25.3,53.023C24.031,53.438 20.968,54.69 19.933,57.361Z" style="fill-rule:nonzero;"/>
                <path d="M8.153,50.988L7.847,49.012C12.121,48.414 16.316,47.34 20.352,45.812C20.663,45.687 20.97,45.56 21.252,45.419C19.125,44.752 16.922,44.352 14.696,44.229C12.306,44.09 9.943,43.657 7.659,42.941L8.333,41.059C10.463,41.719 12.666,42.115 14.893,42.239C17.686,42.359 20.438,42.951 23.033,43.989C23.604,44.158 23.999,44.686 23.999,45.281C23.999,45.698 23.805,46.092 23.475,46.347C22.764,46.918 21.961,47.365 21.1,47.668C16.922,49.254 12.579,50.367 8.153,50.988Z" style="fill-rule:nonzero;"/>
                <path d="M54.964,54C51.438,54 48.655,54 45.078,53.729C43.921,53.67 43.001,52.702 43.001,51.543C43.001,50.724 43.46,49.97 44.189,49.596C47.578,47.77 51.1,47 56,47L56,49C51.452,49 48.216,49.7 45.178,51.335C45.083,51.386 44.978,51.442 45.004,51.58C45.026,51.671 45.11,51.736 45.204,51.733C48.73,52 51.481,52 54.964,52L54.964,54Z" style="fill-rule:nonzero;"/>
                <path d="M1.707,33.707L0.293,32.293L8.293,24.293C8.48,24.106 8.735,24 9,24L15,24L15,26L9.414,26L1.707,33.707Z" style="fill-rule:nonzero;"/>
                <g transform="matrix(0.707144,-0.70707,0.70707,0.707144,-4.055,52.209)">
                    <rect x="60" y="28.171" width="2" height="5.657"/>
                </g>
                <path d="M63,14L56,14C55.451,14 55,13.549 55,13C55,7.608 52.9,5.85 51.65,5.281C50.655,4.836 50.009,3.847 50,2.757C50.002,1.245 51.245,0.002 52.757,-0L53,0C59.271,0 64,5.589 64,13C64,13.549 63.549,14 63,14ZM56.977,12L61.967,12C61.579,6.233 57.854,2 53,2L52.757,2C52.342,2.001 52.001,2.342 52,2.757C52.007,3.064 52.195,3.339 52.478,3.457C54.077,4.187 56.7,6.252 56.977,12Z" style="fill-rule:nonzero;"/>
                <path d="M8,14L1,14C0.451,14 0,13.549 0,13C0,5.589 4.729,0 11,0L11.243,0C12.755,0.002 13.998,1.245 14,2.757C13.991,3.847 13.344,4.836 12.349,5.281C11.1,5.85 9,7.608 9,13C9,13.549 8.549,14 8,14ZM2.033,12L7.023,12C7.297,6.252 9.923,4.187 11.523,3.46C11.807,3.343 11.995,3.067 12.002,2.76C12.002,2.759 12.002,2.759 12.002,2.758C12.002,2.342 11.66,2 11.244,2L11,2C6.146,2 2.421,6.233 2.033,12Z" style="fill-rule:nonzero;"/>
                <rect x="53" y="12" width="3" height="2"/>
                <rect x="8" y="12" width="43" height="2"/>
                <rect x="13" y="2" width="38" height="2"/>
                <g transform="matrix(0.524,-0.852,0.852,0.524,12.619,59.581)">
                    <rect x="53.157" y="17.5" width="12.916" height="2"/>
                </g>
                <g transform="matrix(0.851617,-0.524164,0.524164,0.851617,-10.995,7.163)">
                    <rect x="6.155" y="21.832" width="2" height="2.338"/>
                </g>
                <g transform="matrix(0.851654,-0.524105,0.524105,0.851654,-8.18,4.101)">
                    <rect x="2.154" y="12.39" width="2" height="8.221"/>
                </g>
                <path d="M35,14L29,14C28.451,14 28,13.549 28,13L28,3C28,2.451 28.451,2 29,2L35,2C35.549,2 36,2.451 36,3L36,13C36,13.549 35.549,14 35,14ZM30,12L34,12L34,4L30,4L30,12Z" style="fill-rule:nonzero;"/>
                <path d="M56,11C53.08,11 52.613,10.981 50.022,10.874L49.744,10.862C49.039,10.859 48.337,10.767 47.655,10.588C47.315,10.504 47.019,10.293 46.828,10C46.682,9.734 46.637,9.424 46.702,9.127C46.818,8.753 47.085,8.444 47.439,8.276C47.623,8.176 47.812,8.085 48.001,8.001C44.136,8 38.708,8 35,8L35,6C39,6 45,6 48.884,6.007L49.055,6.007C49.455,5.987 49.857,6.02 50.248,6.107C51.052,6.22 51.646,6.933 51.613,7.744C51.524,8.232 51.223,8.656 50.791,8.9C52.772,8.984 53.4,9 56,9L56,11Z" style="fill-rule:nonzero;"/>
                <path d="M8,11L8,9C11.03,9 13.328,8.971 16.027,8.827C15.703,8.642 15.396,8.428 15.111,8.187C14.715,7.878 14.454,7.427 14.384,6.929C14.358,6.115 14.893,5.382 15.676,5.157C16.086,5.033 16.515,4.983 16.943,5.008L17.115,5.008C21,5 26,5 30,5L30,7C26,7 21,7 17.12,7.009L16.884,7.009C17.084,7.134 17.303,7.253 17.527,7.377C17.922,7.583 18.304,7.814 18.669,8.069C19.243,8.402 19.484,9.117 19.228,9.73C19.063,10.061 18.776,10.315 18.428,10.439C17.734,10.683 17.005,10.811 16.27,10.818C13.467,10.97 11.115,11 8,11Z" style="fill-rule:nonzero;"/>
                <path d="M58,34L45,34C43.354,34 42,32.646 42,31C42,29.354 43.354,28 45,28L45,30C44.451,30 44,30.451 44,31C44,31.549 44.451,32 45,32L58,32C58.549,32 59,31.549 59,31C59,30.451 58.549,30 58,30C57.451,30 57,29.549 57,29C57,28.451 57.451,28 58,28C58.549,28 59,27.549 59,27C59,26.451 58.549,26 58,26L52,26C51.451,26 51,25.549 51,25C51,24.451 51.451,24 52,24C52.549,24 53,23.549 53,23C53,22.451 52.549,22 52,22L44,22C43.645,22 43.317,22.192 43.142,22.5C42.964,22.809 42.633,23 42.277,23L42,23C41.451,23 41,22.549 41,22C41,21.451 40.549,21 40,21L32,21C31.451,21 31,20.549 31,20C31,19.451 31.451,19 32,19C32.549,19 33,18.549 33,18C33,17.451 32.549,17 32,17L28,17C27.451,17 27,17.451 27,18C27,18.549 27.451,19 28,19C28.549,19 29,19.451 29,20C29,20.549 28.549,21 28,21L26,21C25.577,21.003 25.2,21.274 25.062,21.674C24.922,22.074 24.542,22.343 24.118,22.343C23.92,22.343 23.727,22.284 23.562,22.174C23.397,22.061 23.201,22 23,22L21,22C20.451,22 20,21.549 20,21C20,20.451 20.451,20 21,20C21.549,20 22,19.549 22,19C22,18.451 21.549,18 21,18L17,18C16.451,18 16,18.451 16,19C16,19.549 16.451,20 17,20C17.549,20 18,20.451 18,21C18,21.549 17.549,22 17,22L15,22C14.451,22 14,22.451 14,23C14,23.549 14.451,24 15,24C15.549,24 16,24.451 16,25C16,25.549 15.549,26 15,26L10,26C9.451,26 9,26.451 9,27C9,27.549 9.451,28 10,28C10.549,28 11,28.451 11,29C11,29.549 10.549,30 10,30L8,30C7.451,30 7,30.451 7,31C7,31.549 7.451,32 8,32L12,32C12.085,31.998 12.169,31.984 12.251,31.961C12.415,31.919 12.587,31.919 12.751,31.961C12.832,31.984 12.916,31.997 13,32L21,32C21.549,32 22,31.549 22,31C22,30.451 21.549,30 21,30L18,30L18,28L21,28C22.646,28 24,29.354 24,31C24,32.646 22.646,34 21,34L13,34C12.832,33.999 12.665,33.984 12.5,33.953C12.335,33.984 12.168,33.999 12,34L8,34C7.999,34 7.998,34 7.998,34C6.352,34 4.998,32.646 4.998,31C4.998,29.65 5.909,28.459 7.211,28.105C7.072,27.753 7,27.378 7,27C7,25.354 8.354,24 10,24L12.171,24C12.057,23.679 11.999,23.34 11.999,23C11.999,21.65 12.909,20.459 14.211,20.105C14.072,19.753 14,19.378 14,19C14,17.354 15.354,16 17,16L21,16C22.646,16 24,17.354 24,19C24,19.308 23.953,19.614 23.86,19.907C24.232,19.525 24.699,19.249 25.212,19.107C25.071,18.755 24.999,18.379 25,18C25,16.354 26.354,15 28,15L32.001,15C33.646,15 35.001,16.354 35.001,18C35.001,18.341 34.943,18.679 34.829,19L40,19C41.025,19 41.981,19.526 42.531,20.391C42.978,20.136 43.485,20.001 44,20L52.001,20C53.646,20 55.001,21.354 55.001,23C55.001,23.341 54.943,23.679 54.829,24L58,24C59.645,24.001 60.998,25.355 60.998,27C60.998,27.738 60.726,28.45 60.234,29C60.726,29.55 60.998,30.262 60.998,31C60.998,32.645 59.645,33.999 58,34Z" style="fill-rule:nonzero;"/>
            </g>
        </g>
    </g>
    <g transform="matrix(4.61541,0,0,4.61541,-115.74,-787.671)">
        <g>
            <g transform="matrix(0.656327,0,0,0.656327,58.5973,166.382)">
                <path d="M48.051,160.747C48.682,160.672 49.22,160.759 49.793,161.015C50.45,161.309 51.279,161.89 51.736,162.556C52.206,163.242 52.162,164.397 52.54,165.102C52.877,165.729 53.188,166.104 53.813,166.643C54.666,167.378 56.786,167.984 57.497,168.987C58.132,169.882 58.321,171.251 58.167,172.203C58.024,173.088 57.457,174.002 56.76,174.547C56.029,175.121 54.872,175.542 53.813,175.485C52.615,175.421 51.032,174.492 49.927,173.878C48.953,173.336 48.247,172.923 47.448,172.069C46.468,171.019 45.155,169.202 44.635,167.781C44.174,166.525 44.012,165.088 44.233,164.03C44.427,163.1 44.992,162.233 45.64,161.685C46.273,161.149 47.316,160.836 48.051,160.747ZM37.284,190.398C38.385,190.164 40.666,190.065 41.974,190.398C43.102,190.686 43.836,191.748 44.787,192.006C45.669,192.245 46.411,192.099 47.467,192.006C48.811,191.888 50.639,191.338 52.29,191.202C53.986,191.063 56.129,191.035 57.516,191.202C58.569,191.329 59.303,191.514 60.061,191.872C60.792,192.216 61.542,192.723 62.004,193.279C62.427,193.787 62.675,194.415 62.808,195.02C62.94,195.621 63.021,196.195 62.808,196.896C62.528,197.816 61.926,199.205 60.865,200.045C59.565,201.074 57.176,201.78 55.104,202.189C52.908,202.622 49.873,202.556 48.003,202.457C46.611,202.382 45.744,202.335 44.653,201.921C43.485,201.477 41.676,200.146 41.237,199.777C41.074,199.64 41.159,199.631 41.036,199.509C40.798,199.274 40.288,198.65 39.696,198.437C38.974,198.178 37.677,198.569 36.882,198.303C36.161,198.061 35.524,197.647 35.074,197.03C34.568,196.336 34.059,195.162 34.136,194.217C34.216,193.22 35.063,191.835 35.676,191.202C36.152,190.71 36.534,190.557 37.284,190.398ZM91.336,201.751C92.685,201.661 95.01,201.784 96.963,202.555C99.288,203.472 103.097,205.89 104.265,207.445C105.027,208.46 105.101,209.443 104.935,210.393C104.76,211.389 103.921,212.687 103.126,213.273C102.395,213.813 101.21,213.934 100.446,213.943C99.824,213.951 99.752,213.639 98.839,213.541C96.892,213.333 90.045,213.741 87.852,213.407C86.656,213.225 86.165,212.968 85.574,212.603C85.073,212.294 84.737,211.899 84.436,211.465C84.134,211.029 83.881,210.53 83.766,209.991C83.644,209.419 83.607,208.779 83.766,208.115C83.951,207.341 84.264,206.459 84.971,205.636C85.898,204.559 88.157,203.05 89.326,202.421C90.129,201.988 90.427,201.812 91.336,201.751ZM134.794,220.191C136.351,219.878 138.069,219.932 139.215,220.191C140.104,220.393 140.759,220.661 141.292,221.263C141.901,221.95 142.431,223.384 142.498,224.278C142.554,225.026 142.274,225.711 141.962,226.288C141.661,226.843 141.015,227.473 140.689,227.694C140.5,227.823 140.292,227.702 140.22,227.828C140.129,227.988 140.434,228.294 140.354,228.699C140.216,229.403 139.911,230.863 138.813,231.848C137.155,233.336 132.546,235.171 129.837,235.867C127.587,236.445 125.285,236.63 123.673,236.269C122.387,235.981 121.267,235.277 120.659,234.46C120.096,233.705 119.808,232.664 119.989,231.647C120.21,230.403 121.218,228.919 122.468,227.56C124.035,225.857 126.985,223.723 129.167,222.469C131.082,221.369 133.026,220.547 134.794,220.191ZM39.503,221.042C40.54,220.946 40.986,220.944 41.915,221.31C43.212,221.821 45.479,223.366 46.537,224.459C47.376,225.325 47.849,226.127 48.145,227.138C48.459,228.211 48.423,229.7 48.279,230.756C48.154,231.673 47.839,232.529 47.475,233.167C47.165,233.712 46.91,234.126 46.336,234.44C45.591,234.849 44.004,235.138 43.121,235.11C42.423,235.088 42.208,234.652 41.379,234.574C40.051,234.45 37.075,235.2 35.484,234.976C34.222,234.799 33.283,234.3 32.402,233.77C31.584,233.278 30.982,232.703 30.325,231.962C29.589,231.131 28.643,229.355 28.249,228.947C28.087,228.78 28.045,228.89 27.914,228.746C27.669,228.478 27.155,227.718 26.976,227.138C26.796,226.557 26.674,225.93 26.842,225.263C27.045,224.454 27.769,223.221 28.383,222.65C28.894,222.174 29.547,221.975 30.124,221.846C30.663,221.726 31.194,221.726 31.732,221.846C32.31,221.975 32.635,222.613 33.474,222.65C34.819,222.708 37.99,221.183 39.503,221.042Z" style="fill:rgb(0,132,255);fill-rule:nonzero;"/>
            </g>
            <g transform="matrix(0.656327,0,0,0.656327,58.5973,166.382)">
                <path d="M96.749,105.779C97.679,105.538 98.479,105.512 99.431,105.779C100.577,106.101 102.285,107.135 103.12,107.903C103.768,108.5 103.869,109.777 104.349,109.803C104.864,109.831 105.393,108.34 106.138,107.791C106.936,107.204 108.033,106.672 109.044,106.45C110.046,106.229 110.969,106.156 112.173,106.45C113.757,106.836 116.24,108.066 117.762,109.132C119.111,110.078 120.036,111.13 121.003,112.374C122.022,113.683 123.192,115.157 123.686,116.845C124.21,118.635 124.272,120.835 123.909,122.881C123.52,125.078 122.446,127.474 121.227,129.587C119.97,131.766 118.426,133.935 116.421,135.734C114.275,137.66 111.084,139.854 108.597,140.652C106.499,141.326 104.323,141.117 102.561,140.876C101.031,140.667 99.769,140.241 98.537,139.535C97.265,138.805 96.342,138.034 95.072,136.517C93.229,134.315 89.982,129.048 88.813,126.681C88.087,125.212 87.898,124.642 87.695,123.328C87.451,121.749 87.091,119.885 87.695,117.739C88.506,114.859 91.587,109.459 93.396,107.568C94.551,106.36 95.679,106.057 96.749,105.779ZM100.372,141.64C101.829,141.521 103.955,142.802 105.514,142.757C106.904,142.717 107.99,141.53 109.314,141.64C110.772,141.761 112.835,142.625 113.896,143.763C114.956,144.9 115.55,147.034 115.685,148.458C115.8,149.679 115.155,150.162 115.014,151.811C114.772,154.642 114.928,160.024 115.014,165C115.117,170.893 116.518,181.212 115.685,185.119C115.225,187.277 114.526,188.058 113.338,189.031C112.036,190.098 109.83,190.707 107.973,191.043C107.013,191.217 105.997,191.331 104.983,191.34C107.344,191.915 108.146,193.192 109.822,193.557C111.483,193.918 113.536,193.354 114.963,193.557C116.12,193.721 116.828,193.943 117.869,194.451C119.139,195.07 120.966,196.128 122.005,197.245C122.966,198.279 123.638,199.489 124.017,200.822C124.417,202.23 124.668,203.972 124.24,205.516C123.769,207.218 122.268,209.492 120.999,210.546C119.938,211.428 118.819,211.645 117.422,211.888C115.77,212.174 113.356,212.149 111.61,211.888C110.04,211.652 108.462,211.199 107.363,210.546C106.424,209.989 105.839,209.274 105.239,208.423C104.593,207.508 104.392,205.912 103.674,205.181C103.043,204.539 102.61,204.362 101.327,204.063C98.918,203.504 92.304,202.709 88.808,203.169C85.926,203.548 82.871,204.51 81.543,205.852C80.517,206.889 81.001,208.761 80.425,209.764C79.938,210.613 79.398,211.178 78.525,211.664C77.463,212.255 75.64,212.834 74.278,212.782C72.961,212.731 72.158,211.319 70.478,211.44C67.928,211.624 63.386,215.156 59.971,215.911C56.843,216.603 54.013,216.427 50.806,216.135C47.333,215.819 43.269,215.066 39.852,213.899C36.539,212.768 31.784,210.229 30.575,209.317C30.107,208.964 30.231,208.788 30.016,208.534C29.788,208.266 29.541,208.152 29.233,207.752C28.751,207.125 27.738,205.871 27.445,204.846C27.162,203.855 27.205,202.749 27.445,201.716C27.699,200.624 28.282,199.286 29.01,198.475C29.688,197.72 30.583,197.215 31.581,196.91C32.677,196.575 34.067,196.301 35.381,196.686C36.952,197.147 38.636,199.21 40.299,200.04C41.843,200.81 42.917,201.169 44.993,201.604C47.967,202.228 53.802,203.394 57.065,202.946C59.676,202.587 61.998,201.325 63.436,200.151C64.573,199.223 64.878,197.631 65.56,196.91C66.058,196.383 66.534,196.359 67.013,195.904C67.58,195.364 67.907,194.34 68.689,193.78C69.587,193.138 70.902,192.678 72.266,192.439C73.829,192.166 76.152,192.386 77.631,192.439C78.79,192.481 79.34,192.879 80.537,192.663C82.238,192.355 84.071,190.385 87.02,189.98C90.143,189.551 96.115,189.972 100.645,190.586C99.105,190.032 97.524,189.196 96.683,188.249C95.715,187.157 95.685,186.699 95.342,184.225C94.531,178.363 93.465,153.689 94.672,147.564C95.226,144.748 96.177,143.968 97.242,142.981C98.138,142.152 99.148,141.74 100.372,141.64ZM24.601,155.914C26.262,155.665 32.298,155.231 35.108,155.914C37.391,156.469 39.41,157.402 40.585,158.932C41.774,160.481 41.335,162.866 42.149,165.191C43.136,168.007 44.774,172.824 46.397,174.692C47.526,175.992 48.644,176.164 50.085,176.704C51.743,177.325 54.256,177.327 55.897,178.045C57.363,178.686 58.715,179.403 59.586,180.616C60.521,181.919 61.23,184.471 61.151,185.758C61.093,186.69 60.749,187.357 60.033,187.881C59.095,188.569 57.51,188.836 55.45,188.999C52.383,189.241 45.132,189.061 42.708,188.328C41.371,187.924 41.035,187.378 40.361,186.652C39.64,185.875 38.939,185.069 38.573,183.746C38.073,181.944 38.996,178.876 38.349,176.369C37.634,173.596 34.839,170.087 34.102,167.874C33.594,166.351 34.521,164.928 33.543,164.185C32.156,163.131 26.512,164.528 24.601,163.962C23.386,163.602 22.758,163.06 22.254,162.285C21.728,161.477 21.39,160.134 21.583,159.156C21.781,158.156 22.892,156.868 23.483,156.361C23.874,156.026 23.903,156.019 24.601,155.914ZM129.089,214.925C130.634,214.821 131.39,214.816 132.219,215.148C132.94,215.437 133.506,215.957 133.895,216.601C134.321,217.305 134.71,218.361 134.566,219.284C134.403,220.327 133.505,221.756 132.666,222.525C131.879,223.246 131.121,223.48 129.76,223.867C127.708,224.45 122.956,223.818 120.93,225.208C119.108,226.458 118.207,230.487 117.688,231.244C117.51,231.504 117.524,231.395 117.353,231.579C117.019,231.938 116.409,232.957 115.677,233.479C114.853,234.067 113.901,234.564 112.547,234.82C110.725,235.166 107.01,234.969 105.393,234.82C104.39,234.728 103.833,234.172 103.27,234.373C102.725,234.568 102.877,235.573 102.04,235.938C100.528,236.598 97.186,236.436 93.322,236.385C87.556,236.309 76.765,235.109 69.626,234.82C63.382,234.568 55.755,235.336 52.637,234.597C51.026,234.215 50.662,233.844 49.842,232.92C49.283,232.289 48.743,231.012 48.276,229.86C48.809,229.75 49.316,229.587 49.665,229.413C50.235,229.128 50.541,228.733 50.847,228.23C51.189,227.67 51.564,226.921 51.543,226.144C51.518,225.235 51.221,224.079 50.43,223.083C49.382,221.765 46.899,219.915 45.074,219.258C43.437,218.668 41.357,218.744 40.066,218.98C39.081,219.159 38.341,219.539 37.771,220.092C37.212,220.635 36.758,221.423 36.658,222.249C36.598,222.743 36.661,223.391 36.806,224.009C36.218,224.038 35.611,224.072 34.977,224.09C32.599,224.159 28.459,223.853 27.041,224.537C26.197,224.944 26.101,226.079 25.811,226.326C25.671,226.445 25.431,226.336 25.476,226.437C25.605,226.729 28.975,227.82 29.723,228.896C30.368,229.824 30.406,231.278 30.17,232.25C29.95,233.161 29.365,234.086 28.494,234.597C27.451,235.209 25.317,235.396 24.023,235.267C22.908,235.156 22.119,234.263 21.117,234.15C20.108,234.036 18.912,234.819 17.987,234.597C17.095,234.383 16.305,233.825 15.64,232.92C14.765,231.73 13.979,229.12 13.628,227.555C13.345,226.291 13.049,225.498 13.404,224.202C13.894,222.417 15.771,219.087 17.317,217.831C18.573,216.81 20.707,216.554 21.564,216.49C22.02,216.456 21.795,216.676 22.458,216.713C24.683,216.837 37.067,215.507 41.459,215.819C44.261,216.018 45.853,217.13 47.495,217.16C48.757,217.183 49.175,216.552 50.625,216.49C52.901,216.391 58.675,217.674 60.461,217.384C61.365,217.237 61.09,216.691 62.026,216.49C63.968,216.072 67.772,216.442 73.203,216.49C82.506,216.572 106.358,217.811 116.124,217.16C122.209,216.755 126.348,215.109 129.089,214.925Z" style="fill:rgb(250,231,66);fill-rule:nonzero;"/>
            </g>
            <g transform="matrix(0.656327,0,0,0.656327,58.5973,166.382)">
                <path d="M131.751,210.346L127.721,210.346C129.181,208.026 130.051,205.296 130.051,202.356C130.051,195.956 126.001,190.486 120.341,188.346L120.341,137.526L125.621,130.306C127.731,127.416 128.851,124.006 128.851,120.426L128.851,118.226C128.851,108.966 121.291,101.446 112.011,101.446L98.601,101.446C89.321,101.446 81.771,108.966 81.771,118.226L81.771,120.426C81.771,124.006 82.891,127.416 85.001,130.306L90.271,137.526L90.271,187.366L66.021,187.366L66.021,185.696C66.021,175.206 61.321,165.416 53.131,158.826C46.981,153.876 39.251,151.146 31.351,151.146L24.321,151.146C19.621,151.146 15.791,154.966 15.791,159.656C15.791,164.346 19.621,168.166 24.321,168.166C26.791,168.166 29.221,169.016 31.151,170.566L31.471,170.836C34.321,173.116 35.951,176.516 35.951,180.156L35.951,187.586C28.861,188.776 23.431,194.936 23.431,202.356C23.431,205.296 24.301,208.026 25.761,210.346L21.731,210.346C13.461,210.346 6.741,217.076 6.741,225.336C6.741,233.606 13.461,240.326 21.731,240.326L131.751,240.326C140.021,240.326 146.741,233.606 146.741,225.336C146.741,217.076 140.021,210.346 131.751,210.346ZM88.771,120.426L88.771,118.226C88.771,113.956 91.531,110.326 95.371,108.996L95.371,111.846C95.371,113.226 96.491,114.346 97.871,114.346C99.251,114.346 100.371,113.226 100.371,111.846L100.371,108.446L102.811,108.446L102.811,114.916C102.811,116.296 103.931,117.416 105.311,117.416C106.691,117.416 107.811,116.296 107.811,114.916L107.811,108.446L110.251,108.446L110.251,111.846C110.251,113.226 111.371,114.346 112.751,114.346C114.131,114.346 115.251,113.226 115.251,111.846L115.251,108.996C119.081,110.326 121.851,113.956 121.851,118.226L121.851,120.426C121.851,122.506 121.201,124.496 119.971,126.176L113.261,135.356C111.411,137.876 108.441,139.386 105.311,139.386C102.171,139.386 99.201,137.876 97.361,135.356L90.651,126.176C89.421,124.496 88.771,122.506 88.771,120.426ZM99.751,160.886C100.231,161.316 100.821,161.526 101.411,161.526C102.101,161.526 102.791,161.236 103.281,160.686L105.311,158.406L107.331,160.686C107.821,161.236 108.511,161.526 109.201,161.526C109.791,161.526 110.381,161.316 110.861,160.886C111.891,159.976 111.981,158.396 111.071,157.366L107.811,153.696L107.811,146.186C109.761,145.896 111.631,145.266 113.341,144.336L113.341,187.366L97.271,187.366L97.271,144.336C98.991,145.266 100.861,145.896 102.811,146.186L102.811,153.696L99.551,157.366C98.631,158.396 98.721,159.976 99.751,160.886ZM48.741,164.276C52.091,166.966 54.691,170.326 56.451,174.086L55.231,173.906C50.501,173.176 46.801,169.366 46.211,164.646L45.931,162.316C46.901,162.916 47.851,163.556 48.741,164.276ZM35.861,165.376L35.531,165.116C32.371,162.566 28.391,161.166 24.321,161.166C23.481,161.166 22.791,160.486 22.791,159.656C22.791,158.826 23.481,158.146 24.321,158.146L31.351,158.146C34.501,158.146 37.621,158.696 40.571,159.726L41.251,165.256C42.111,172.196 47.541,177.776 54.471,178.846L58.301,179.436C58.771,181.466 59.021,183.566 59.021,185.696L59.021,187.366L42.951,187.366L42.951,180.156C42.951,174.386 40.361,169.006 35.861,165.376ZM38.431,194.366L62.471,194.366C58.021,200.696 49.471,202.766 42.581,199.016L35.251,195.026C36.221,194.606 37.301,194.366 38.431,194.366ZM31.371,198.616L40.191,203.416C43.281,205.086 46.621,205.886 49.911,205.886C56.741,205.886 63.391,202.456 67.221,196.276L68.401,194.366L115.051,194.366C119.461,194.366 123.051,197.946 123.051,202.356C123.051,206.766 119.461,210.346 115.051,210.346L109.391,210.346C108.501,206.476 106.031,203.066 102.491,201.046L100.611,199.976C96.971,197.896 92.601,197.506 88.641,198.896C83.561,200.686 79.951,205.136 79.181,210.346L38.431,210.346C34.021,210.346 30.431,206.766 30.431,202.356C30.431,201.006 30.771,199.726 31.371,198.616ZM104.171,210.346L84.261,210.346C84.981,207.276 87.231,204.696 90.301,203.616C92.891,202.706 95.751,202.956 98.131,204.316L100.011,205.396C101.981,206.516 103.421,208.286 104.171,210.346ZM47.131,230.946L46.231,233.326L34.361,233.326L30.331,229.606C29.761,229.076 29.431,228.336 29.431,227.566C29.431,226.176 30.481,224.996 31.861,224.806L41.171,223.516C42.881,223.286 44.641,223.866 45.871,225.086C47.401,226.616 47.901,228.916 47.131,230.946ZM114.721,233.326L51.571,233.326L51.811,232.716C53.271,228.846 52.321,224.466 49.401,221.546C47.071,219.236 43.741,218.116 40.491,218.566L31.181,219.846C27.331,220.376 24.431,223.696 24.431,227.566C24.431,229.726 25.351,231.806 26.941,233.276L27.001,233.326L21.731,233.326C17.321,233.326 13.741,229.746 13.741,225.336C13.741,220.936 17.321,217.346 21.731,217.346L131.751,217.346C132.811,217.346 133.821,217.556 134.741,217.936L134.171,218.056C125.611,219.956 118.521,225.586 114.721,233.326ZM131.751,233.326L120.441,233.326C123.751,228.086 129.031,224.326 135.251,222.946L139.051,222.106C139.491,223.096 139.741,224.186 139.741,225.336C139.741,229.746 136.161,233.326 131.751,233.326Z" style="fill-rule:nonzero;"/>
            </g>
            <g transform="matrix(0.656327,0,0,0.656327,58.5973,166.382)">
                <path d="M99.711,123.346C99.711,124.916 98.431,126.196 96.851,126.196C95.271,126.196 93.991,124.916 93.991,123.346C93.991,121.776 95.271,120.496 96.851,120.496C98.431,120.496 99.711,121.776 99.711,123.346Z" style="fill-rule:nonzero;"/>
            </g>
            <g transform="matrix(0.656327,0,0,0.656327,58.5973,166.382)">
                <path d="M115.516,123.462C115.516,125.032 114.236,126.312 112.656,126.312C111.076,126.312 109.796,125.032 109.796,123.462C109.796,121.892 111.076,120.612 112.656,120.612C114.236,120.612 115.516,121.892 115.516,123.462Z" style="fill-rule:nonzero;"/>
            </g>
        </g>
    </g>
</svg>
