<?xml version="1.0" encoding="UTF-8" standalone="no"?>
<!DOCTYPE svg PUBLIC "-//W3C//DTD SVG 1.1//EN" "http://www.w3.org/Graphics/SVG/1.1/DTD/svg11.dtd">
<svg width="100%" height="100%" viewBox="0 0 3252 1621" version="1.1" xmlns="http://www.w3.org/2000/svg" xmlns:xlink="http://www.w3.org/1999/xlink" xml:space="preserve" xmlns:serif="http://www.serif.com/" style="fill-rule:evenodd;clip-rule:evenodd;stroke-linejoin:round;stroke-miterlimit:2;">
    <g id="Artboard1" transform="matrix(1.02162,0,0,1,-80.5611,-426.808)">
        <rect x="78.856" y="426.808" width="3182.98" height="1620.43" style="fill:none;"/>
        <g transform="matrix(0.871458,0,0,1,270.625,232.403)">
            <path d="M2219.27,378.836C2219.27,342.32 2185.97,312.674 2144.96,312.674L1100.92,312.674C1059.9,312.674 1026.6,342.32 1026.6,378.836L1026.6,511.161C1026.6,547.677 1059.9,577.323 1100.92,577.323L2144.96,577.323C2185.97,577.323 2219.27,547.677 2219.27,511.161L2219.27,378.836Z" style="fill:rgb(212,215,222);"/>
        </g>
        <g transform="matrix(1.24493,0,0,1,464.982,1212.6)">
            <path d="M2219.27,378.836C2219.27,342.32 2195.96,312.674 2167.25,312.674L1078.62,312.674C1049.91,312.674 1026.6,342.32 1026.6,378.836L1026.6,511.161C1026.6,547.677 1049.91,577.323 1078.62,577.323L2167.25,577.323C2195.96,577.323 2219.27,547.677 2219.27,511.161L2219.27,378.836Z" style="fill:rgb(212,215,222);"/>
        </g>
        <g transform="matrix(1.24493,0,0,1,-1138.59,1212.6)">
            <path d="M2219.27,378.836C2219.27,342.32 2195.96,312.674 2167.25,312.674L1078.62,312.674C1049.91,312.674 1026.6,342.32 1026.6,378.836L1026.6,511.161C1026.6,547.677 1049.91,577.323 1078.62,577.323L2167.25,577.323C2195.96,577.323 2219.27,547.677 2219.27,511.161L2219.27,378.836Z" style="fill:rgb(212,215,222);"/>
        </g>
        <g transform="matrix(2.28883,0,0,2.33831,-1229.04,-82.1085)">
            <text x="1070.77px" y="343.668px" style="font-family:'Consolas', monospace;font-size:74.84px;">py-[event]</text>
        </g>
        <g transform="matrix(2.28883,0,0,2.33831,-550.538,898.084)">
            <text x="1017.05px" y="343.668px" style="font-family:'Consolas', monospace;font-size:74.84px;">py-[event]-code</text>
        </g>
        <g transform="matrix(2.28883,0,0,2.33831,-2154.11,898.084)">
            <text x="1119.92px" y="343.668px" style="font-family:'Consolas', monospace;font-size:74.84px;">py-[event]</text>
        </g>
        <g transform="matrix(1.76535,0,0,1.80352,-819.631,374.63)">
            <text x="1070.77px" y="343.668px" style="font-family:'PalatinoLinotype-Roman', 'Palatino Linotype', serif;font-size:92.719px;">executable string</text>
        </g>
        <g transform="matrix(1.76535,0,0,1.80352,-19.1483,1339.86)">
            <text x="1052.69px" y="343.668px" style="font-family:'PalatinoLinotype-Roman', 'Palatino Linotype', serif;font-size:92.719px;">ev<tspan x="1146.99px 1193.35px " y="343.668px 343.668px ">al</tspan>uatable string</text>
        </g>
        <g transform="matrix(1.76535,0,0,1.80352,-1622.72,1339.86)">
            <text x="1073.44px" y="343.668px" style="font-family:'PalatinoLinotype-Roman', 'Palatino Linotype', serif;font-size:92.719px;">name of Callable</text>
        </g>
        <g transform="matrix(0.444176,-0.785967,0.898543,0.529989,-230.446,1639.2)">
            <path d="M952.928,952.518L952.928,989.848L885.853,932.418L952.928,874.989L952.928,912.318L1345.29,912.318L1345.29,952.518L952.928,952.518Z"/>
        </g>
        <g transform="matrix(-0.444176,-0.785967,-0.898543,0.529989,3535.31,1639.2)">
            <path d="M952.928,952.518L952.928,989.848L885.853,932.418L952.928,874.989L952.928,912.318L1345.29,912.318L1345.29,952.518L952.928,952.518Z"/>
        </g>
    </g>
</svg>
